<?xml version="1.0" standalone="no"?>
<!DOCTYPE svg PUBLIC "-//W3C//DTD SVG 20010904//EN"
 "http://www.w3.org/TR/2001/REC-SVG-20010904/DTD/svg10.dtd">
<svg version="1.0" xmlns="http://www.w3.org/2000/svg"
 width="1024.000000pt" height="1024.000000pt" viewBox="0 0 1024.000000 1024.000000"
 preserveAspectRatio="xMidYMid meet">

<g transform="translate(0.000000,1024.000000) scale(0.100000,-0.100000)"
fill="#000000" stroke="none">
<path d="M4107 9381 c-63 -76 -117 -217 -117 -308 0 -18 -2 -33 -5 -33 -3 0
-31 18 -63 39 -62 43 -128 74 -179 85 l-32 7 26 -60 c15 -34 23 -64 20 -67 -4
-4 -30 3 -59 16 -58 24 -198 38 -264 26 l-38 -8 59 -23 c54 -23 155 -84 155
-95 0 -3 -57 -5 -127 -5 -119 -1 -134 -3 -211 -32 -137 -53 -285 -156 -362
-253 l-32 -40 54 2 c89 4 218 -2 218 -9 0 -5 -31 -27 -68 -50 -148 -91 -293
-261 -354 -414 -27 -68 -64 -226 -55 -235 3 -3 35 4 72 15 37 12 69 21 71 21
2 0 -4 -19 -12 -42 -38 -110 -27 -286 30 -461 l23 -70 28 51 c16 29 30 51 32
49 1 -2 41 -84 87 -183 121 -259 286 -675 286 -720 0 -6 -13 -17 -30 -24 -54
-22 -107 -91 -120 -156 -23 -109 10 -286 80 -424 55 -109 161 -231 256 -293
53 -35 53 -34 125 -197 109 -247 268 -427 469 -530 25 -13 86 -38 135 -55 l90
-31 61 -175 c34 -96 59 -177 55 -181 -3 -4 -31 -16 -61 -28 -351 -137 -840
-366 -1044 -488 -226 -135 -317 -235 -631 -692 -205 -298 -340 -479 -813
-1088 -271 -351 -263 -325 -151 -438 450 -457 1158 -864 1854 -1065 657 -191
1631 -281 2575 -239 970 44 1814 225 2600 558 311 132 748 367 878 472 74 61
95 90 94 136 -2 65 -301 1088 -447 1529 -219 661 -401 989 -676 1220 -261 218
-527 344 -1024 480 -257 70 -401 121 -495 174 -122 70 -142 79 -196 91 -67 15
-139 -2 -211 -51 -32 -21 -68 -39 -80 -39 -45 0 -196 63 -236 98 -78 71 -130
213 -183 502 -25 135 -26 158 -20 323 3 98 9 184 13 192 5 7 42 39 83 72 87
69 123 111 173 203 107 197 116 477 23 676 -62 132 -142 194 -249 194 l-57 0
-1 93 c-2 313 -19 728 -32 785 -8 34 -13 62 -10 62 2 0 22 -9 43 -20 47 -24
46 -26 24 90 -21 111 -67 237 -115 310 -21 33 -39 62 -39 65 0 2 36 15 80 30
44 15 78 30 75 35 -3 4 -59 31 -125 60 -66 29 -120 54 -120 56 0 1 29 30 65
65 36 34 65 65 65 69 0 13 -374 160 -524 205 -44 13 -135 38 -201 55 -197 50
-421 52 -568 4 -27 -9 -50 -14 -53 -12 -2 3 31 36 75 74 l79 69 -106 3 c-118
3 -221 -15 -309 -53 -71 -32 -167 -99 -193 -135 -12 -16 -25 -30 -29 -30 -14
0 -54 101 -66 164 l-11 59 -27 -32z m1153 -1233 c129 -27 245 -52 258 -55 21
-5 22 -8 22 -141 l0 -136 131 -125 c72 -69 137 -138 145 -154 15 -28 53 -186
54 -219 0 -15 -10 -18 -67 -19 -38 0 -86 -3 -108 -7 -37 -7 -42 -5 -78 31 -66
66 -114 82 -252 81 -92 0 -140 -5 -205 -23 -271 -72 -414 -167 -449 -300 -7
-25 -9 -25 -107 -26 -109 0 -164 -18 -236 -75 l-36 -30 -52 35 c-63 42 -106
55 -188 55 -119 0 -323 -55 -460 -124 -123 -62 -201 -163 -210 -273 -2 -29 -7
-53 -11 -53 -3 0 -16 48 -29 108 -18 86 -22 140 -22 274 0 162 -1 169 -36 290
-20 67 -41 140 -47 161 l-10 39 104 104 c57 57 106 104 109 104 3 0 22 -43 40
-95 19 -52 37 -95 40 -95 14 0 187 146 289 245 l114 110 -7 -85 c-4 -47 -10
-112 -13 -144 l-6 -59 104 71 c128 87 271 213 409 361 l105 112 45 -16 c53
-18 401 -97 406 -92 2 2 -5 50 -16 108 -11 57 -20 107 -20 110 0 8 12 6 290
-53z m205 -849 c98 -27 164 -145 172 -309 14 -263 -108 -431 -340 -471 -198
-33 -357 44 -441 214 -42 86 -55 140 -56 227 0 81 31 153 85 197 127 105 438
181 580 142z m460 -164 c9 -36 21 -65 25 -65 5 0 25 21 46 46 49 59 85 77 159
78 51 1 66 -3 96 -26 42 -33 80 -99 105 -183 27 -92 26 -288 -3 -380 -37 -119
-117 -222 -240 -312 -34 -26 -69 -61 -78 -79 -10 -22 -19 -87 -25 -194 -12
-191 -37 -283 -110 -394 -136 -207 -524 -474 -826 -569 -168 -53 -234 -62
-454 -61 -190 0 -212 2 -304 27 -176 47 -293 114 -407 233 -142 148 -231 336
-401 848 -83 251 -104 287 -163 272 -23 -6 -45 -49 -45 -89 0 -35 69 -255 101
-323 17 -36 29 -68 26 -70 -6 -7 -57 66 -85 123 -58 112 -98 289 -82 359 13
57 40 77 111 84 l61 6 48 -101 c77 -160 168 -253 287 -298 89 -33 253 -30 345
6 37 14 94 44 126 65 l58 40 36 -33 c45 -42 104 -53 168 -31 29 9 77 14 135
13 88 -2 92 -1 165 39 41 23 99 49 127 59 62 20 118 78 135 140 l11 40 101 -3
c363 -12 600 231 572 585 -4 45 -13 106 -21 135 -7 29 -11 55 -9 58 7 6 90 17
145 19 l46 1 18 -65z m-1261 -198 c11 -8 27 -49 42 -108 42 -166 114 -277 229
-353 30 -21 55 -39 55 -41 0 -2 -18 -23 -39 -47 -29 -31 -53 -47 -88 -56 -26
-8 -77 -25 -112 -39 -40 -17 -95 -29 -150 -34 -47 -4 -102 -13 -121 -18 -83
-26 -127 -3 -92 47 76 106 90 341 31 497 -26 70 -24 81 21 111 77 51 184 70
224 41z m-501 -8 c116 -32 194 -196 185 -385 -4 -69 -11 -104 -31 -147 -52
-114 -159 -198 -299 -233 -53 -14 -73 -14 -137 -4 -119 19 -175 55 -245 158
-61 90 -88 167 -94 273 -4 72 -1 91 16 126 36 70 108 117 252 165 65 22 103
32 205 52 40 8 111 6 148 -5z m1890 -1447 c42 -221 125 -386 235 -467 56 -42
171 -98 305 -150 53 -21 97 -42 97 -45 0 -15 -302 -301 -389 -368 -240 -186
-551 -333 -811 -386 -340 -68 -708 -36 -752 67 -32 77 -155 412 -152 416 1 1
38 -8 81 -22 108 -35 125 -38 211 -38 267 0 665 312 959 751 59 88 153 251
172 298 7 17 17 32 20 32 4 0 15 -40 24 -88z"/>
<path d="M5145 7568 c-199 -37 -399 -142 -435 -228 -30 -72 12 -70 233 10 167
61 262 84 426 104 69 9 129 20 135 27 15 15 -44 64 -102 84 -50 17 -176 19
-257 3z"/>
<path d="M3870 7204 c-150 -33 -281 -93 -333 -155 -44 -50 -85 -169 -60 -169
4 0 57 24 118 54 157 77 344 131 526 151 122 14 122 13 114 43 -9 36 -33 62
-72 78 -42 18 -207 17 -293 -2z"/>
<path d="M5191 7104 c-118 -32 -213 -98 -231 -161 -10 -40 -3 -45 41 -32 19 5
69 14 112 19 54 6 112 23 190 55 151 63 161 68 165 88 9 43 -161 62 -277 31z"/>
<path d="M6132 7040 c-45 -33 -97 -113 -107 -167 -5 -28 0 -43 24 -82 25 -39
31 -58 31 -103 0 -30 -5 -69 -11 -87 -17 -47 -5 -78 32 -86 40 -9 75 16 106
75 29 55 31 144 3 232 -26 83 -25 93 10 138 70 89 5 148 -88 80z"/>
<path d="M5215 6026 c-46 -28 -132 -46 -219 -46 -47 0 -80 -9 -146 -36 -56
-24 -111 -39 -162 -44 -61 -7 -97 -18 -171 -55 -59 -29 -116 -49 -152 -54 -60
-8 -75 -20 -75 -62 0 -43 33 -64 100 -63 49 1 76 10 162 52 81 39 117 51 168
55 36 3 103 20 149 37 46 16 139 39 207 50 170 27 254 71 254 132 0 60 -48 74
-115 34z"/>
<path d="M4980 5689 c-73 -26 -232 -65 -299 -74 -70 -8 -91 -20 -91 -50 0 -58
61 -81 189 -72 86 6 172 35 249 84 65 41 82 72 58 108 -20 30 -34 31 -106 4z"/>
<path d="M3928 6745 c-61 -16 -126 -55 -172 -101 -64 -64 -40 -92 52 -60 22 8
71 14 109 14 58 -1 78 4 143 34 41 20 92 39 113 43 20 4 37 12 37 17 0 22 -22
47 -51 57 -42 15 -172 12 -231 -4z"/>
</g>
</svg>
